<svg width="100%" height="100%" viewBox="0 0 1332 129" fill="none" xmlns="http://www.w3.org/2000/svg">
<path d="M640.235 125.969C636.366 125.969 633.179 124.718 630.676 122.214C628.286 119.711 627.091 116.524 627.091 112.655V69.2633C627.091 65.1358 623.746 61.7898 619.618 61.7898H609.473C605.346 61.7898 602 58.4438 602 54.3164V48.7804C602 44.653 605.346 41.307 609.473 41.307H619.618C623.746 41.307 627.091 37.961 627.091 33.8336V13.9597C627.091 9.83219 630.437 6.48622 634.565 6.48622H641.125C645.252 6.48622 648.598 9.83219 648.598 13.9597V33.8336C648.598 37.961 651.944 41.307 656.072 41.307H671.678C675.806 41.307 679.152 44.653 679.152 48.7804V54.3164C679.152 58.4438 675.806 61.7898 671.678 61.7898H656.072C651.944 61.7898 648.598 65.1358 648.598 69.2632V100.366C648.598 103.78 650.135 105.486 653.207 105.486H668.606C672.734 105.486 676.08 108.832 676.08 112.96V118.496C676.08 122.623 672.734 125.969 668.606 125.969H640.235Z" fill="#FEFEFE"/>
<path d="M728.335 128.359C719.573 128.359 712.461 126.937 706.999 124.092C701.651 121.247 697.554 117.776 694.709 113.68C693.44 111.776 692.38 109.897 691.529 108.043C689.943 104.59 692.145 100.838 695.756 99.6549L701.646 97.7255C705.747 96.382 710.101 98.9204 712.764 102.317C713.435 103.173 714.187 104.002 715.021 104.804C717.98 107.535 722.418 108.9 728.335 108.9C733.683 108.9 737.325 108.104 739.259 106.511C741.308 104.804 742.332 102.983 742.332 101.049C742.332 98.7727 741.137 96.7813 738.747 95.0744C736.358 93.3675 731.578 92.2295 724.409 91.6606C714.964 90.864 707.397 88.3606 701.707 84.1502C696.018 79.9399 693.173 73.8519 693.173 65.8864V64.8622C693.173 59.2864 694.709 54.5639 697.782 50.695C700.854 46.826 704.837 43.9242 709.73 41.9898C714.623 39.9415 719.801 38.9173 725.263 38.9173C732.432 38.9173 738.349 40.0553 743.014 42.3311C747.68 44.4932 751.321 47.2243 753.939 50.5243C754.922 51.7128 755.803 52.9013 756.579 54.0899C758.756 57.4195 756.848 61.5919 753.159 63.0805L747.656 65.3012C743.66 66.9136 739.244 64.4902 735.896 61.7786C735.606 61.5441 735.305 61.3202 734.992 61.107C732.489 59.2864 729.245 58.376 725.263 58.376C721.735 58.376 719.004 59.0588 717.07 60.4243C715.249 61.676 714.339 63.2691 714.339 65.2036C714.339 67.9346 715.761 69.8691 718.606 71.0071C721.451 72.145 726.628 73.1691 734.139 74.0795C742.787 74.9898 749.842 77.6071 755.304 81.9312C760.766 86.1416 763.497 92.0588 763.497 99.683V100.707C763.497 109.014 760.425 115.728 754.28 120.849C748.135 125.855 739.487 128.359 728.335 128.359Z" fill="#FEFEFE"/>
<path d="M812.244 128.359C805.53 128.359 799.329 126.652 793.639 123.238C787.949 119.824 783.398 114.874 779.984 108.388C776.57 101.902 774.863 94.1071 774.863 85.0037V82.2726C774.863 73.2829 776.513 65.545 779.813 59.0588C783.113 52.5725 787.494 47.6225 792.956 44.2087C798.532 40.6811 804.62 38.9173 811.22 38.9173C817.251 38.9173 822.087 39.9415 825.729 41.9898C829.177 43.8704 831.953 46.7104 834.058 50.5096C834.406 51.1388 835.059 51.5484 835.778 51.5484C836.827 51.5484 837.677 50.6982 837.677 49.6495V46.4277C837.677 43.5996 839.97 41.307 842.798 41.307H851.711C855.838 41.307 859.184 44.653 859.184 48.7804V100.366C859.184 103.78 860.72 105.486 863.793 105.486C865.584 105.486 867.036 106.938 867.036 108.729V118.496C867.036 122.623 863.69 125.969 859.562 125.969H852.356C848.487 125.969 845.301 124.831 842.798 122.555C840.835 120.593 839.678 118.246 839.328 115.516C839.198 114.508 838.389 113.68 837.372 113.68C836.627 113.68 835.96 114.132 835.648 114.809C833.505 119.458 830.483 122.836 826.582 124.945C822.486 127.221 817.706 128.359 812.244 128.359ZM817.024 107.876C823.282 107.876 828.289 105.828 832.044 101.731C835.799 97.5209 837.677 91.8313 837.677 84.6623V82.614C837.677 75.445 835.799 69.8122 832.044 65.7157C828.289 61.5053 823.282 59.4001 817.024 59.4001C810.765 59.4001 805.758 61.5053 802.003 65.7157C798.248 69.8122 796.37 75.445 796.37 82.614V84.6623C796.37 91.8313 798.248 97.5209 802.003 101.731C805.758 105.828 810.765 107.876 817.024 107.876Z" fill="#FEFEFE"/>
<path d="M887.964 125.969C883.836 125.969 880.49 122.623 880.49 118.496V13.9597C880.49 9.83219 883.836 6.48622 887.964 6.48622H894.524C898.651 6.48622 901.997 9.83219 901.997 13.9597V53.115C901.997 54.1352 902.824 54.9622 903.844 54.9622C904.587 54.9622 905.253 54.5149 905.568 53.8424C907.71 49.2656 910.73 45.713 914.628 43.1846C918.839 40.3398 924.016 38.9173 930.161 38.9173C938.582 38.9173 945.523 41.6484 950.985 47.1105C956.561 52.5725 959.349 61.107 959.349 72.714V118.496C959.349 122.623 956.003 125.969 951.876 125.969H945.316C941.188 125.969 937.842 122.623 937.842 118.496V77.8347C937.842 71.8036 936.363 67.0812 933.404 63.6674C930.559 60.1398 926.406 58.376 920.944 58.376C914.685 58.376 909.963 60.5381 906.777 64.8622C903.59 69.0726 901.997 74.7622 901.997 81.9312V118.496C901.997 122.623 898.651 125.969 894.524 125.969H887.964Z" fill="#FEFEFE"/>
<path d="M1013.92 32.4311C1009.49 32.4311 1005.67 30.8949 1002.49 27.8225C999.301 24.6363 997.708 20.7673 997.708 16.2156C997.708 11.6638 999.301 7.85174 1002.49 4.77932C1005.67 1.59311 1009.49 0 1013.92 0C1018.36 0 1022.17 1.59311 1025.36 4.77932C1028.55 7.85174 1030.14 11.6638 1030.14 16.2156C1030.14 20.7673 1028.55 24.6363 1025.36 27.8225C1022.17 30.8949 1018.36 32.4311 1013.92 32.4311ZM982.138 125.969C978.011 125.969 974.665 122.623 974.665 118.496V112.96C974.665 108.832 978.011 105.486 982.138 105.486H995.868C999.995 105.486 1003.34 102.14 1003.34 98.013V69.2632C1003.34 65.1358 999.995 61.7898 995.868 61.7898H984.187C980.059 61.7898 976.713 58.4438 976.713 54.3164V48.7804C976.713 44.653 980.059 41.307 984.187 41.307H1017.37C1021.5 41.307 1024.85 44.653 1024.85 48.7804V98.013C1024.85 102.14 1028.19 105.486 1032.32 105.486H1041.95C1046.08 105.486 1049.43 108.832 1049.43 112.96V118.496C1049.43 122.623 1046.08 125.969 1041.95 125.969H982.138Z" fill="#FEFEFE"/>
<path d="M1068.07 125.969C1063.94 125.969 1060.6 122.623 1060.6 118.496V112.96C1060.6 108.832 1063.94 105.486 1068.07 105.486H1082.82C1086.95 105.486 1090.3 102.14 1090.3 98.013V34.4425C1090.3 30.315 1086.95 26.969 1082.82 26.969H1069.09C1064.97 26.969 1061.62 23.6231 1061.62 19.4956V13.9597C1061.62 9.8322 1064.97 6.48622 1069.09 6.48622H1104.33C1108.46 6.48622 1111.8 9.83219 1111.8 13.9597V98.013C1111.8 102.14 1115.15 105.486 1119.28 105.486H1131.98C1136.11 105.486 1139.46 108.832 1139.46 112.96V118.496C1139.46 122.623 1136.11 125.969 1131.98 125.969H1068.07Z" fill="#FEFEFE"/>
<path d="M1191.01 128.359C1183.27 128.359 1176.04 126.652 1169.33 123.238C1162.61 119.824 1157.21 114.874 1153.11 108.388C1149.02 101.902 1146.97 93.9933 1146.97 84.6623V82.614C1146.97 73.3967 1149.02 65.545 1153.11 59.0588C1157.21 52.4587 1162.61 47.4518 1169.33 44.038C1176.04 40.6242 1183.27 38.9173 1191.01 38.9173C1198.74 38.9173 1205.97 40.6242 1212.68 44.038C1219.4 47.4518 1224.8 52.4587 1228.9 59.0588C1233 65.545 1235.04 73.3967 1235.04 82.614V84.6623C1235.04 93.9933 1233 101.902 1228.9 108.388C1224.8 114.874 1219.4 119.824 1212.68 123.238C1205.97 126.652 1198.74 128.359 1191.01 128.359ZM1191.01 107.876C1197.26 107.876 1202.56 105.885 1206.88 101.902C1211.32 97.8054 1213.54 92.2864 1213.54 85.345V81.9312C1213.54 74.876 1211.32 69.3571 1206.88 65.3743C1202.56 61.3915 1197.26 59.4001 1191.01 59.4001C1184.75 59.4001 1179.4 61.3915 1174.96 65.3743C1170.64 69.3571 1168.47 74.876 1168.47 81.9312V85.345C1168.47 92.2864 1170.64 97.8054 1174.96 101.902C1179.4 105.885 1184.75 107.876 1191.01 107.876Z" fill="#FEFEFE"/>
<path d="M1271.97 125.969C1268.63 125.969 1265.7 123.759 1264.78 120.553L1244.82 50.8374C1243.46 46.0624 1247.04 41.307 1252.01 41.307H1259.58C1262.96 41.307 1265.92 43.5775 1266.79 46.8435L1284.88 114.244C1285.12 115.119 1285.91 115.728 1286.81 115.728C1287.72 115.728 1288.51 115.119 1288.75 114.244L1306.84 46.8435C1307.71 43.5775 1310.67 41.307 1314.05 41.307H1321.62C1326.59 41.307 1330.17 46.0624 1328.81 50.8374L1308.85 120.553C1307.93 123.759 1305 125.969 1301.66 125.969H1271.97Z" fill="#FEFEFE"/>
<path d="M37.3811 128.373C30.6673 128.373 24.4656 126.666 18.7759 123.252C13.0862 119.838 8.5345 114.888 5.1207 108.402C1.7069 101.916 0 94.1209 0 85.0174V82.2864C0 73.2967 1.65 65.5588 4.95001 59.0725C8.25002 52.5863 12.6311 47.6363 18.0931 44.2225C23.669 40.6949 29.757 38.9311 36.357 38.9311C42.388 38.9311 47.2243 39.9552 50.8656 42.0035C54.3135 43.8842 57.0899 46.7241 59.1947 50.5234C59.5433 51.1525 60.1959 51.5622 60.9151 51.5622C61.9638 51.5622 62.8139 50.712 62.8139 49.6633V46.4415C62.8139 43.6134 65.1066 41.3208 67.9347 41.3208H76.8475C80.9749 41.3208 84.3209 44.6667 84.3209 48.7942V100.38C84.3209 103.793 85.8571 105.5 88.9295 105.5C90.7206 105.5 92.1726 106.952 92.1726 108.743V118.51C92.1726 122.637 88.8267 125.983 84.6992 125.983H77.4933C73.6243 125.983 70.4381 124.845 67.9346 122.569C65.972 120.607 64.8153 118.26 64.4646 115.53C64.3351 114.521 63.5259 113.693 62.5092 113.693C61.7639 113.693 61.0969 114.146 60.7849 114.822C58.6422 119.471 55.6203 122.85 51.7191 124.959C47.6225 127.235 42.8432 128.373 37.3811 128.373ZM42.1604 107.89C48.4191 107.89 53.426 105.842 57.1812 101.745C60.9364 97.5347 62.8139 91.845 62.8139 84.676V82.6278C62.8139 75.4588 60.9364 69.826 57.1812 65.7295C53.426 61.5191 48.4191 59.4139 42.1604 59.4139C35.9018 59.4139 30.8949 61.5191 27.1397 65.7295C23.3845 69.826 21.507 75.4588 21.507 82.6278V84.676C21.507 91.845 23.3845 97.5347 27.1397 101.745C30.8949 105.842 35.9018 107.89 42.1604 107.89Z" fill="#FEFEFE"/>
<path d="M110.427 125.983C106.3 125.983 102.954 122.637 102.954 118.51V112.974C102.954 108.846 106.3 105.5 110.427 105.5H125.181C129.308 105.5 132.654 102.154 132.654 98.0268V34.4563C132.654 30.3288 129.308 26.9828 125.181 26.9828H111.452C107.324 26.9828 103.978 23.6368 103.978 19.5094V13.9734C103.978 9.84598 107.324 6.5 111.452 6.5H146.688C150.815 6.5 154.161 9.84597 154.161 13.9734V98.0268C154.161 102.154 157.507 105.5 161.634 105.5H174.339C178.467 105.5 181.813 108.846 181.813 112.974V118.51C181.813 122.637 178.467 125.983 174.339 125.983H110.427Z" fill="#FEFEFE"/>
<path d="M223.341 128.373C216.627 128.373 210.425 126.666 204.736 123.252C199.046 119.838 194.494 114.888 191.08 108.402C187.667 101.916 185.96 94.1209 185.96 85.0174V82.2864C185.96 73.2967 187.61 65.5588 190.91 59.0725C194.21 52.5863 198.591 47.6363 204.053 44.2225C209.629 40.6949 215.717 38.9311 222.317 38.9311C228.348 38.9311 233.184 39.9552 236.825 42.0035C240.273 43.8842 243.049 46.7241 245.154 50.5234C245.503 51.1525 246.155 51.5622 246.875 51.5622C247.923 51.5622 248.774 50.712 248.774 49.6633V46.4415C248.774 43.6134 251.066 41.3208 253.894 41.3208H262.807C266.935 41.3208 270.281 44.6667 270.281 48.7942V100.38C270.281 103.793 271.817 105.5 274.889 105.5C276.68 105.5 278.132 106.952 278.132 108.743V118.51C278.132 122.637 274.786 125.983 270.659 125.983H263.453C259.584 125.983 256.398 124.845 253.894 122.569C251.932 120.607 250.775 118.26 250.424 115.53C250.295 114.521 249.486 113.693 248.469 113.693C247.724 113.693 247.057 114.146 246.745 114.822C244.602 119.471 241.58 122.85 237.679 124.959C233.582 127.235 228.803 128.373 223.341 128.373ZM228.12 107.89C234.379 107.89 239.386 105.842 243.141 101.745C246.896 97.5347 248.774 91.845 248.774 84.676V82.6278C248.774 75.4588 246.896 69.826 243.141 65.7295C239.386 61.5191 234.379 59.4139 228.12 59.4139C221.861 59.4139 216.855 61.5191 213.099 65.7295C209.344 69.826 207.467 75.4588 207.467 82.6278V84.676C207.467 91.845 209.344 97.5347 213.099 101.745C216.855 105.842 221.861 107.89 228.12 107.89Z" fill="#FEFEFE"/>
<path d="M297.899 125.983C293.772 125.983 290.426 122.637 290.426 118.51V48.7942C290.426 44.6667 293.772 41.3208 297.899 41.3208H305.617C309.105 41.3208 311.933 44.1483 311.933 47.6363V52.1165C311.933 53.1301 312.754 53.9518 313.768 53.9518C314.516 53.9518 315.183 53.4951 315.497 52.8163C317.452 48.5829 320.418 45.2631 324.393 42.857C328.717 40.2397 333.781 38.9311 339.584 38.9311C345.047 38.9311 349.997 40.1259 354.434 42.5156C358.986 44.7915 362.571 48.4329 365.188 53.4398C367.919 58.3329 369.285 64.6484 369.285 72.3864V118.51C369.285 122.637 365.939 125.983 361.811 125.983H355.251C351.124 125.983 347.778 122.637 347.778 118.51V77.8484C347.778 71.8174 346.298 67.095 343.34 63.6812C340.495 60.1536 336.341 58.3898 330.879 58.3898C324.621 58.3898 319.898 60.5519 316.712 64.876C313.526 69.0864 311.933 74.776 311.933 81.945V118.51C311.933 122.637 308.587 125.983 304.459 125.983H297.899Z" fill="#FEFEFE"/>
</svg>