<svg width="370" height="122" viewBox="0 0 370 122" fill="none" xmlns="http://www.w3.org/2000/svg">
<path d="M37.3811 121.873C30.6673 121.873 24.4656 120.166 18.7759 116.752C13.0862 113.338 8.5345 108.388 5.1207 101.902C1.7069 95.4157 0 87.6209 0 78.5174V75.7864C0 66.7967 1.65 59.0588 4.95001 52.5725C8.25002 46.0863 12.6311 41.1363 18.0931 37.7225C23.669 34.1949 29.757 32.4311 36.357 32.4311C42.388 32.4311 47.2243 33.4553 50.8656 35.5035C54.3135 37.3842 57.0899 40.2241 59.1947 44.0234C59.5433 44.6525 60.1959 45.0622 60.9151 45.0622C61.9638 45.0622 62.8139 44.212 62.8139 43.1633V39.9415C62.8139 37.1134 65.1066 34.8208 67.9347 34.8208H76.8475C80.9749 34.8208 84.3209 38.1667 84.3209 42.2942V93.8795C84.3209 97.2933 85.8571 99.0002 88.9295 99.0002C90.7206 99.0002 92.1726 100.452 92.1726 102.243V112.01C92.1726 116.137 88.8267 119.483 84.6992 119.483H77.4933C73.6243 119.483 70.4381 118.345 67.9346 116.069C65.972 114.107 64.8153 111.76 64.4646 109.03C64.3351 108.021 63.5259 107.193 62.5092 107.193C61.7639 107.193 61.0969 107.646 60.7849 108.322C58.6422 112.971 55.6203 116.35 51.7191 118.459C47.6225 120.735 42.8432 121.873 37.3811 121.873ZM42.1604 101.39C48.4191 101.39 53.426 99.3416 57.1812 95.2451C60.9364 91.0347 62.8139 85.345 62.8139 78.176V76.1278C62.8139 68.9588 60.9364 63.326 57.1812 59.2295C53.426 55.0191 48.4191 52.9139 42.1604 52.9139C35.9018 52.9139 30.8949 55.0191 27.1397 59.2295C23.3845 63.326 21.507 68.9588 21.507 76.1278V78.176C21.507 85.345 23.3845 91.0347 27.1397 95.2451C30.8949 99.3416 35.9018 101.39 42.1604 101.39Z" fill="#FEFEFE"/>
<path d="M110.427 119.483C106.3 119.483 102.954 116.137 102.954 112.01V106.474C102.954 102.346 106.3 99.0002 110.427 99.0002H125.181C129.308 99.0002 132.654 95.6543 132.654 91.5268V27.9563C132.654 23.8288 129.308 20.4828 125.181 20.4828H111.452C107.324 20.4828 103.978 17.1368 103.978 13.0094V7.47344C103.978 3.34598 107.324 0 111.452 0H146.688C150.815 0 154.161 3.34597 154.161 7.47344V91.5268C154.161 95.6543 157.507 99.0002 161.634 99.0002H174.339C178.467 99.0002 181.813 102.346 181.813 106.474V112.01C181.813 116.137 178.467 119.483 174.339 119.483H110.427Z" fill="#FEFEFE"/>
<path d="M223.341 121.873C216.627 121.873 210.425 120.166 204.736 116.752C199.046 113.338 194.494 108.388 191.08 101.902C187.667 95.4157 185.96 87.6209 185.96 78.5174V75.7864C185.96 66.7967 187.61 59.0588 190.91 52.5725C194.21 46.0863 198.591 41.1363 204.053 37.7225C209.629 34.1949 215.717 32.4311 222.317 32.4311C228.348 32.4311 233.184 33.4553 236.825 35.5035C240.273 37.3842 243.049 40.2241 245.154 44.0234C245.503 44.6525 246.155 45.0622 246.875 45.0622C247.923 45.0622 248.774 44.212 248.774 43.1633V39.9415C248.774 37.1134 251.066 34.8208 253.894 34.8208H262.807C266.935 34.8208 270.281 38.1667 270.281 42.2942V93.8795C270.281 97.2933 271.817 99.0002 274.889 99.0002C276.68 99.0002 278.132 100.452 278.132 102.243V112.01C278.132 116.137 274.786 119.483 270.659 119.483H263.453C259.584 119.483 256.398 118.345 253.894 116.069C251.932 114.107 250.775 111.76 250.424 109.03C250.295 108.021 249.486 107.193 248.469 107.193C247.724 107.193 247.057 107.646 246.745 108.322C244.602 112.971 241.58 116.35 237.679 118.459C233.582 120.735 228.803 121.873 223.341 121.873ZM228.12 101.39C234.379 101.39 239.386 99.3416 243.141 95.2451C246.896 91.0347 248.774 85.345 248.774 78.176V76.1278C248.774 68.9588 246.896 63.326 243.141 59.2295C239.386 55.0191 234.379 52.9139 228.12 52.9139C221.861 52.9139 216.855 55.0191 213.099 59.2295C209.344 63.326 207.467 68.9588 207.467 76.1278V78.176C207.467 85.345 209.344 91.0347 213.099 95.2451C216.855 99.3416 221.861 101.39 228.12 101.39Z" fill="#FEFEFE"/>
<path d="M297.899 119.483C293.772 119.483 290.426 116.137 290.426 112.01V42.2942C290.426 38.1667 293.772 34.8208 297.899 34.8208H305.617C309.105 34.8208 311.933 37.6483 311.933 41.1363V45.6165C311.933 46.6301 312.754 47.4518 313.768 47.4518C314.516 47.4518 315.183 46.9951 315.497 46.3163C317.452 42.0829 320.418 38.7631 324.393 36.357C328.717 33.7397 333.781 32.4311 339.584 32.4311C345.047 32.4311 349.997 33.6259 354.434 36.0156C358.986 38.2915 362.571 41.9329 365.188 46.9398C367.919 51.8329 369.285 58.1484 369.285 65.8864V112.01C369.285 116.137 365.939 119.483 361.811 119.483H355.251C351.124 119.483 347.778 116.137 347.778 112.01V71.3484C347.778 65.3174 346.298 60.595 343.34 57.1812C340.495 53.6536 336.341 51.8898 330.879 51.8898C324.621 51.8898 319.898 54.0519 316.712 58.376C313.526 62.5864 311.933 68.276 311.933 75.445V112.01C311.933 116.137 308.587 119.483 304.459 119.483H297.899Z" fill="#FEFEFE"/>
</svg>
