<svg width="361" height="137" viewBox="0 0 361 137" fill="none" xmlns="http://www.w3.org/2000/svg">
<path d="M18.9198 135.334C17.0053 135.334 15.4287 134.715 14.1899 133.476C13.0074 132.237 12.4162 130.66 12.4162 128.746V107.274C12.4162 105.231 10.7604 103.576 8.71803 103.576H3.69812C1.6557 103.576 0 101.92 0 99.8777V97.1383C0 95.0959 1.65571 93.4402 3.69812 93.4402H8.71804C10.7605 93.4402 12.4162 91.7845 12.4162 89.742V79.9077C12.4162 77.8653 14.0719 76.2096 16.1143 76.2096H19.3604C21.4028 76.2096 23.0585 77.8653 23.0585 79.9077V89.742C23.0585 91.7845 24.7142 93.4402 26.7566 93.4402H34.4794C36.5218 93.4402 38.1775 95.0959 38.1775 97.1383V99.8777C38.1775 101.92 36.5218 103.576 34.4794 103.576H26.7567C24.7142 103.576 23.0585 105.231 23.0585 107.274V122.665C23.0585 124.354 23.8187 125.198 25.339 125.198H32.959C35.0015 125.198 36.6572 126.854 36.6572 128.897V131.636C36.6572 133.678 35.0015 135.334 32.959 135.334H18.9198Z" fill="#FEFEFE"/>
<path d="M62.5151 136.517C58.1793 136.517 54.66 135.813 51.9572 134.405C49.3106 132.997 47.2835 131.28 45.8758 129.253C45.2478 128.311 44.7232 127.381 44.302 126.463C43.5174 124.755 44.607 122.898 46.3938 122.313L49.3083 121.358C51.3377 120.693 53.4921 121.949 54.8097 123.63C55.1418 124.054 55.5143 124.464 55.9269 124.861C57.391 126.212 59.587 126.888 62.5151 126.888C65.1616 126.888 66.9635 126.494 67.9207 125.705C68.9343 124.861 69.4411 123.96 69.4411 123.002C69.4411 121.876 68.8498 120.891 67.6673 120.046C66.4848 119.202 64.1199 118.638 60.5724 118.357C55.8988 117.963 52.1542 116.724 49.3388 114.64C46.5233 112.557 45.1156 109.545 45.1156 105.603V105.096C45.1156 102.337 45.8758 100 47.3961 98.0857C48.9165 96.1711 50.8873 94.7353 53.3086 93.778C55.7299 92.7645 58.2919 92.2577 60.9947 92.2577C64.5422 92.2577 67.4703 92.8208 69.7789 93.9469C72.0876 95.0168 73.8895 96.3682 75.1846 98.0012C75.6713 98.5893 76.1069 99.1774 76.4914 99.7656C77.5685 101.413 76.6245 103.478 74.799 104.214L72.0757 105.313C70.0984 106.111 67.9133 104.912 66.2562 103.57C66.1129 103.454 65.9639 103.343 65.8092 103.238C64.5704 102.337 62.9655 101.887 60.9947 101.887C59.2492 101.887 57.8977 102.224 56.9405 102.9C56.0395 103.519 55.5891 104.308 55.5891 105.265C55.5891 106.616 56.2929 107.574 57.7007 108.137C59.1084 108.7 61.6705 109.207 65.3868 109.657C69.6663 110.108 73.1575 111.403 75.8603 113.542C78.5631 115.626 79.9145 118.554 79.9145 122.327V122.833C79.9145 126.944 78.3942 130.266 75.3535 132.8C72.3128 135.278 68.0333 136.517 62.5151 136.517Z" fill="#FEFEFE"/>
<path d="M104.036 136.517C100.714 136.517 97.6452 135.672 94.8298 133.983C92.0143 132.293 89.7619 129.844 88.0727 126.634C86.3834 123.425 85.5388 119.568 85.5388 115.063V113.711C85.5388 109.263 86.3552 105.434 87.9882 102.224C89.6212 99.0147 91.7891 96.5653 94.4919 94.876C97.251 93.1305 100.264 92.2577 103.529 92.2577C106.514 92.2577 108.907 92.7645 110.709 93.778C112.415 94.7086 113.789 96.1139 114.83 97.9939C115.003 98.3053 115.326 98.508 115.682 98.508C116.201 98.508 116.621 98.0873 116.621 97.5683V95.9741C116.621 94.5746 117.756 93.4402 119.155 93.4402H123.566C125.608 93.4402 127.264 95.0959 127.264 97.1383V122.665C127.264 124.354 128.024 125.198 129.544 125.198C130.431 125.198 131.149 125.917 131.149 126.803V131.636C131.149 133.678 129.493 135.334 127.451 135.334H123.885C121.971 135.334 120.394 134.771 119.155 133.645C118.184 132.674 117.612 131.512 117.438 130.161C117.374 129.662 116.974 129.253 116.47 129.253C116.102 129.253 115.772 129.476 115.617 129.811C114.557 132.112 113.062 133.784 111.131 134.827C109.104 135.953 106.739 136.517 104.036 136.517ZM106.401 126.381C109.498 126.381 111.976 125.367 113.834 123.34C115.692 121.257 116.621 118.441 116.621 114.894V113.88C116.621 110.333 115.692 107.546 113.834 105.518C111.976 103.435 109.498 102.393 106.401 102.393C103.304 102.393 100.827 103.435 98.9685 105.518C97.1103 107.546 96.1812 110.333 96.1812 113.88V114.894C96.1812 118.441 97.1103 121.257 98.9685 123.34C100.827 125.367 103.304 126.381 106.401 126.381Z" fill="#FEFEFE"/>
<path d="M141.505 135.334C139.463 135.334 137.807 133.678 137.807 131.636V79.9077C137.807 77.8653 139.463 76.2096 141.505 76.2096H144.751C146.794 76.2096 148.449 77.8653 148.449 79.9077V99.2832C148.449 99.788 148.858 100.197 149.363 100.197C149.731 100.197 150.06 99.9759 150.216 99.6431C151.276 97.3784 152.771 95.6204 154.7 94.3693C156.783 92.9615 159.345 92.2577 162.386 92.2577C166.553 92.2577 169.987 93.6091 172.69 96.3119C175.449 99.0147 176.829 103.238 176.829 108.981V131.636C176.829 133.678 175.173 135.334 173.131 135.334H169.885C167.842 135.334 166.187 133.678 166.187 131.636V111.515C166.187 108.531 165.455 106.194 163.991 104.505C162.583 102.759 160.528 101.887 157.825 101.887C154.728 101.887 152.391 102.956 150.814 105.096C149.238 107.18 148.449 109.995 148.449 113.542V131.636C148.449 133.678 146.794 135.334 144.751 135.334H141.505Z" fill="#FEFEFE"/>
<path d="M203.834 89.0481C201.638 89.0481 199.752 88.2879 198.175 86.7675C196.599 85.1909 195.81 83.2764 195.81 81.024C195.81 78.7717 196.599 76.8853 198.175 75.365C199.752 73.7883 201.638 73 203.834 73C206.03 73 207.917 73.7883 209.493 75.365C211.07 76.8853 211.858 78.7717 211.858 81.024C211.858 83.2764 211.07 85.1909 209.493 86.7675C207.917 88.2879 206.03 89.0481 203.834 89.0481ZM188.106 135.334C186.063 135.334 184.408 133.678 184.408 131.636V128.897C184.408 126.854 186.063 125.198 188.106 125.198H194.9C196.942 125.198 198.598 123.543 198.598 121.5V107.274C198.598 105.231 196.942 103.576 194.9 103.576H189.119C187.077 103.576 185.421 101.92 185.421 99.8777V97.1383C185.421 95.0959 187.077 93.4402 189.119 93.4402H205.542C207.584 93.4402 209.24 95.0959 209.24 97.1383V121.5C209.24 123.543 210.896 125.198 212.938 125.198H217.705C219.747 125.198 221.403 126.854 221.403 128.897V131.636C221.403 133.678 219.747 135.334 217.705 135.334H188.106Z" fill="#FEFEFE"/>
<path d="M230.628 135.334C228.585 135.334 226.93 133.678 226.93 131.636V128.897C226.93 126.854 228.585 125.198 230.628 125.198H237.928C239.971 125.198 241.626 123.543 241.626 121.5V90.0434C241.626 88.0009 239.971 86.3452 237.928 86.3452H231.135C229.092 86.3452 227.437 84.6895 227.437 82.6471V79.9077C227.437 77.8653 229.092 76.2096 231.135 76.2096H248.571C250.613 76.2096 252.269 77.8653 252.269 79.9077V121.5C252.269 123.543 253.924 125.198 255.967 125.198H262.254C264.296 125.198 265.952 126.854 265.952 128.897V131.636C265.952 133.678 264.296 135.334 262.254 135.334H230.628Z" fill="#FEFEFE"/>
<path d="M291.461 136.517C287.632 136.517 284.056 135.672 280.734 133.983C277.412 132.293 274.737 129.844 272.71 126.634C270.683 123.425 269.669 119.511 269.669 114.894V113.88C269.669 109.319 270.683 105.434 272.71 102.224C274.737 98.9584 277.412 96.4808 280.734 94.7916C284.056 93.1023 287.632 92.2577 291.461 92.2577C295.29 92.2577 298.865 93.1023 302.188 94.7916C305.51 96.4808 308.185 98.9584 310.212 102.224C312.239 105.434 313.252 109.319 313.252 113.88V114.894C313.252 119.511 312.239 123.425 310.212 126.634C308.185 129.844 305.51 132.293 302.188 133.983C298.865 135.672 295.29 136.517 291.461 136.517ZM291.461 126.381C294.558 126.381 297.176 125.396 299.316 123.425C301.512 121.398 302.61 118.667 302.61 115.232V113.542C302.61 110.051 301.512 107.32 299.316 105.35C297.176 103.379 294.558 102.393 291.461 102.393C288.364 102.393 285.717 103.379 283.521 105.35C281.382 107.32 280.312 110.051 280.312 113.542V115.232C280.312 118.667 281.382 121.398 283.521 123.425C285.717 125.396 288.364 126.381 291.461 126.381Z" fill="#FEFEFE"/>
<path d="M331.523 135.334C329.873 135.334 328.422 134.24 327.968 132.654L318.091 98.1561C317.415 95.7933 319.189 93.4402 321.647 93.4402H325.392C327.065 93.4402 328.53 94.5637 328.963 96.1798L337.913 129.532C338.03 129.965 338.422 130.266 338.871 130.266C339.319 130.266 339.712 129.965 339.828 129.532L348.778 96.1798C349.211 94.5637 350.676 93.4402 352.35 93.4402H356.095C358.552 93.4402 360.326 95.7933 359.65 98.1561L349.774 132.654C349.319 134.24 347.869 135.334 346.218 135.334H331.523Z" fill="#FEFEFE"/>
<path d="M18.4975 60.3069C15.1753 60.3069 12.1064 59.4623 9.29098 57.773C6.47553 56.0837 4.22317 53.6343 2.5339 50.4247C0.844635 47.2151 0 43.3579 0 38.8532V37.5018C0 33.0534 0.81648 29.2244 2.44944 26.0147C4.0824 22.8051 6.2503 20.3557 8.95313 18.6664C11.7123 16.9208 14.7248 16.0481 17.9907 16.0481C20.9751 16.0481 23.3682 16.5548 25.1701 17.5684C26.8762 18.499 28.2501 19.9043 29.2916 21.7843C29.4641 22.0957 29.787 22.2984 30.1429 22.2984C30.6619 22.2984 31.0826 21.8777 31.0826 21.3587V19.7644C31.0826 18.365 32.217 17.2305 33.6165 17.2305H38.0268C40.0692 17.2305 41.7249 18.8863 41.7249 20.9287V46.4549C41.7249 48.1442 42.4851 48.9888 44.0055 48.9888C44.8918 48.9888 45.6103 49.7073 45.6103 50.5936V55.4263C45.6103 57.4687 43.9546 59.1244 41.9121 59.1244H38.3464C36.4319 59.1244 34.8552 58.5613 33.6165 57.4352C32.6453 56.464 32.0729 55.3028 31.8994 53.9518C31.8353 53.4528 31.4349 53.0431 30.9317 53.0431C30.5629 53.0431 30.2329 53.2669 30.0785 53.6018C29.0182 55.9022 27.5229 57.5742 25.5924 58.6176C23.5653 59.7438 21.2003 60.3069 18.4975 60.3069ZM20.8625 50.1713C23.9595 50.1713 26.4371 49.1577 28.2953 47.1306C30.1535 45.0472 31.0826 42.2317 31.0826 38.6843V37.6707C31.0826 34.1232 30.1535 31.3359 28.2953 29.3088C26.4371 27.2254 23.9595 26.1837 20.8625 26.1837C17.7655 26.1837 15.2879 27.2254 13.4297 29.3088C11.5715 31.3359 10.6424 34.1232 10.6424 37.6707V38.6843C10.6424 42.2317 11.5715 45.0472 13.4297 47.1306C15.2879 49.1577 17.7655 50.1713 20.8625 50.1713Z" fill="#FEFEFE"/>
<path d="M54.6434 59.1244C52.601 59.1244 50.9452 57.4687 50.9452 55.4263V52.6869C50.9452 50.6445 52.601 48.9888 54.6434 48.9888H61.9438C63.9862 48.9888 65.6419 47.3331 65.6419 45.2907V13.8337C65.6419 11.7913 63.9862 10.1356 61.9438 10.1356H55.1501C53.1077 10.1356 51.452 8.47991 51.452 6.43749V3.69812C51.452 1.6557 53.1077 0 55.1501 0H72.5862C74.6286 0 76.2843 1.65571 76.2843 3.69812V45.2907C76.2843 47.3331 77.94 48.9888 79.9824 48.9888H86.2692C88.3117 48.9888 89.9674 50.6445 89.9674 52.6869V55.4263C89.9674 57.4687 88.3117 59.1244 86.2692 59.1244H54.6434Z" fill="#FEFEFE"/>
<path d="M110.517 60.3069C107.195 60.3069 104.126 59.4623 101.31 57.773C98.4949 56.0837 96.2425 53.6343 94.5533 50.4247C92.864 47.2151 92.0194 43.3579 92.0194 38.8532V37.5018C92.0194 33.0534 92.8358 29.2244 94.4688 26.0147C96.1018 22.8051 98.2697 20.3557 100.972 18.6664C103.732 16.9208 106.744 16.0481 110.01 16.0481C112.994 16.0481 115.388 16.5548 117.189 17.5684C118.896 18.499 120.269 19.9043 121.311 21.7843C121.483 22.0957 121.806 22.2984 122.162 22.2984C122.681 22.2984 123.102 21.8777 123.102 21.3587V19.7644C123.102 18.365 124.236 17.2305 125.636 17.2305H130.046C132.089 17.2305 133.744 18.8863 133.744 20.9287V46.4549C133.744 48.1442 134.504 48.9888 136.025 48.9888C136.911 48.9888 137.63 49.7073 137.63 50.5936V55.4263C137.63 57.4687 135.974 59.1244 133.932 59.1244H130.366C128.451 59.1244 126.875 58.5613 125.636 57.4352C124.665 56.464 124.092 55.3028 123.919 53.9518C123.855 53.4528 123.454 53.0431 122.951 53.0431C122.582 53.0431 122.252 53.2669 122.098 53.6018C121.038 55.9022 119.542 57.5742 117.612 58.6176C115.585 59.7438 113.22 60.3069 110.517 60.3069ZM112.882 50.1713C115.979 50.1713 118.456 49.1577 120.315 47.1306C122.173 45.0472 123.102 42.2317 123.102 38.6843V37.6707C123.102 34.1232 122.173 31.3359 120.315 29.3088C118.456 27.2254 115.979 26.1837 112.882 26.1837C109.785 26.1837 107.307 27.2254 105.449 29.3088C103.591 31.3359 102.662 34.1232 102.662 37.6707V38.6843C102.662 42.2317 103.591 45.0472 105.449 47.1306C107.307 49.1577 109.785 50.1713 112.882 50.1713Z" fill="#FEFEFE"/>
<path d="M147.411 59.1244C145.369 59.1244 143.713 57.4687 143.713 55.4263V20.9287C143.713 18.8862 145.369 17.2305 147.411 17.2305H151.23C152.956 17.2305 154.355 18.6297 154.355 20.3557V22.5727C154.355 23.0742 154.762 23.4808 155.263 23.4808C155.633 23.4808 155.964 23.2548 156.119 22.9189C157.087 20.8241 158.554 19.1813 160.521 17.9907C162.661 16.6956 165.167 16.0481 168.038 16.0481C170.741 16.0481 173.191 16.6393 175.387 17.8218C177.639 18.948 179.413 20.7499 180.708 23.2275C182.059 25.6487 182.735 28.7739 182.735 32.6029V55.4263C182.735 57.4687 181.079 59.1244 179.037 59.1244H175.791C173.748 59.1244 172.093 57.4687 172.093 55.4263V35.3057C172.093 32.3214 171.361 29.9845 169.897 28.2953C168.489 26.5497 166.434 25.6769 163.731 25.6769C160.634 25.6769 158.297 26.7468 156.72 28.8865C155.144 30.9699 154.355 33.7854 154.355 37.3328V55.4263C154.355 57.4687 152.7 59.1244 150.657 59.1244H147.411Z" fill="#FEFEFE"/>
</svg>
