<svg width="728" height="129" viewBox="0 0 728 129" fill="none" xmlns="http://www.w3.org/2000/svg">
<path d="M38.2346 125.969C34.3656 125.969 31.1794 124.718 28.676 122.214C26.2863 119.711 25.0915 116.524 25.0915 112.655V69.2633C25.0915 65.1358 21.7455 61.7898 17.6181 61.7898H7.47344C3.34597 61.7898 0 58.4438 0 54.3164V48.7804C0 44.653 3.34597 41.307 7.47344 41.307H17.6181C21.7455 41.307 25.0915 37.961 25.0915 33.8336V13.9597C25.0915 9.83219 28.4375 6.48622 32.5649 6.48622H39.1249C43.2524 6.48622 46.5984 9.83219 46.5984 13.9597V33.8336C46.5984 37.961 49.9444 41.307 54.0718 41.307H69.6785C73.8059 41.307 77.1519 44.653 77.1519 48.7804V54.3164C77.1519 58.4438 73.8059 61.7898 69.6785 61.7898H54.0718C49.9444 61.7898 46.5984 65.1358 46.5984 69.2632V100.366C46.5984 103.78 48.1346 105.486 51.207 105.486H66.6061C70.7336 105.486 74.0795 108.832 74.0795 112.96V118.496C74.0795 122.623 70.7336 125.969 66.6061 125.969H38.2346Z" fill="#FEFEFE"/>
<path d="M126.335 128.359C117.573 128.359 110.461 126.937 104.999 124.092C99.6506 121.247 95.554 117.776 92.7092 113.68C91.4402 111.776 90.38 109.897 89.5287 108.043C87.9433 104.59 90.1451 100.838 93.7561 99.6549L99.6459 97.7255C103.747 96.382 108.101 98.9204 110.764 102.317C111.435 103.173 112.187 104.002 113.021 104.804C115.98 107.535 120.418 108.9 126.335 108.9C131.683 108.9 135.325 108.104 137.259 106.511C139.308 104.804 140.332 102.983 140.332 101.049C140.332 98.7727 139.137 96.7813 136.747 95.0744C134.358 93.3675 129.578 92.2295 122.409 91.6606C112.964 90.864 105.397 88.3606 99.7075 84.1502C94.0178 79.9399 91.173 73.8519 91.173 65.8864V64.8622C91.173 59.2864 92.7092 54.5639 95.7816 50.695C98.854 46.826 102.837 43.9242 107.73 41.9898C112.623 39.9415 117.801 38.9173 123.263 38.9173C130.432 38.9173 136.349 40.0553 141.014 42.3311C145.68 44.4932 149.321 47.2243 151.939 50.5243C152.922 51.7128 153.803 52.9013 154.579 54.0899C156.756 57.4195 154.848 61.5919 151.159 63.0805L145.656 65.3012C141.66 66.9136 137.244 64.4902 133.896 61.7786C133.606 61.5441 133.305 61.3202 132.992 61.107C130.489 59.2864 127.245 58.376 123.263 58.376C119.735 58.376 117.004 59.0588 115.07 60.4243C113.249 61.676 112.339 63.2691 112.339 65.2036C112.339 67.9346 113.761 69.8691 116.606 71.0071C119.451 72.145 124.628 73.1691 132.139 74.0795C140.787 74.9898 147.842 77.6071 153.304 81.9312C158.766 86.1416 161.497 92.0588 161.497 99.683V100.707C161.497 109.014 158.425 115.728 152.28 120.849C146.135 125.855 137.487 128.359 126.335 128.359Z" fill="#FEFEFE"/>
<path d="M210.244 128.359C203.53 128.359 197.329 126.652 191.639 123.238C185.949 119.824 181.398 114.874 177.984 108.388C174.57 101.902 172.863 94.1071 172.863 85.0037V82.2726C172.863 73.2829 174.513 65.545 177.813 59.0588C181.113 52.5725 185.494 47.6225 190.956 44.2087C196.532 40.6811 202.62 38.9173 209.22 38.9173C215.251 38.9173 220.087 39.9415 223.729 41.9898C227.177 43.8704 229.953 46.7104 232.058 50.5096C232.406 51.1388 233.059 51.5484 233.778 51.5484C234.827 51.5484 235.677 50.6982 235.677 49.6495V46.4277C235.677 43.5996 237.97 41.307 240.798 41.307H249.711C253.838 41.307 257.184 44.653 257.184 48.7804V100.366C257.184 103.78 258.72 105.486 261.793 105.486C263.584 105.486 265.036 106.938 265.036 108.729V118.496C265.036 122.623 261.69 125.969 257.562 125.969H250.356C246.487 125.969 243.301 124.831 240.798 122.555C238.835 120.593 237.678 118.246 237.328 115.516C237.198 114.508 236.389 113.68 235.372 113.68C234.627 113.68 233.96 114.132 233.648 114.809C231.505 119.458 228.483 122.836 224.582 124.945C220.486 127.221 215.706 128.359 210.244 128.359ZM215.024 107.876C221.282 107.876 226.289 105.828 230.044 101.731C233.799 97.5209 235.677 91.8313 235.677 84.6623V82.614C235.677 75.445 233.799 69.8122 230.044 65.7157C226.289 61.5053 221.282 59.4001 215.024 59.4001C208.765 59.4001 203.758 61.5053 200.003 65.7157C196.248 69.8122 194.37 75.445 194.37 82.614V84.6623C194.37 91.8313 196.248 97.5209 200.003 101.731C203.758 105.828 208.765 107.876 215.024 107.876Z" fill="#FEFEFE"/>
<path d="M285.964 125.969C281.836 125.969 278.49 122.623 278.49 118.496V13.9597C278.49 9.83219 281.836 6.48622 285.964 6.48622H292.524C296.651 6.48622 299.997 9.83219 299.997 13.9597V53.115C299.997 54.1352 300.824 54.9622 301.844 54.9622C302.587 54.9622 303.253 54.5149 303.568 53.8424C305.71 49.2656 308.73 45.713 312.628 43.1846C316.839 40.3398 322.016 38.9173 328.161 38.9173C336.582 38.9173 343.523 41.6484 348.985 47.1105C354.561 52.5725 357.349 61.107 357.349 72.714V118.496C357.349 122.623 354.003 125.969 349.876 125.969H343.316C339.188 125.969 335.842 122.623 335.842 118.496V77.8347C335.842 71.8036 334.363 67.0812 331.404 63.6674C328.559 60.1398 324.406 58.376 318.944 58.376C312.685 58.376 307.963 60.5381 304.777 64.8622C301.59 69.0726 299.997 74.7622 299.997 81.9312V118.496C299.997 122.623 296.651 125.969 292.524 125.969H285.964Z" fill="#FEFEFE"/>
<path d="M411.924 32.4311C407.486 32.4311 403.674 30.8949 400.487 27.8225C397.301 24.6363 395.708 20.7673 395.708 16.2156C395.708 11.6638 397.301 7.85174 400.487 4.77932C403.674 1.59311 407.486 0 411.924 0C416.362 0 420.174 1.59311 423.36 4.77932C426.546 7.85174 428.139 11.6638 428.139 16.2156C428.139 20.7673 426.546 24.6363 423.36 27.8225C420.174 30.8949 416.362 32.4311 411.924 32.4311ZM380.138 125.969C376.011 125.969 372.665 122.623 372.665 118.496V112.96C372.665 108.832 376.011 105.486 380.138 105.486H393.868C397.995 105.486 401.341 102.14 401.341 98.013V69.2632C401.341 65.1358 397.995 61.7898 393.868 61.7898H382.187C378.059 61.7898 374.713 58.4438 374.713 54.3164V48.7804C374.713 44.653 378.059 41.307 382.187 41.307H415.374C419.502 41.307 422.848 44.653 422.848 48.7804V98.013C422.848 102.14 426.194 105.486 430.321 105.486H439.954C444.081 105.486 447.427 108.832 447.427 112.96V118.496C447.427 122.623 444.081 125.969 439.954 125.969H380.138Z" fill="#FEFEFE"/>
<path d="M466.07 125.969C461.942 125.969 458.596 122.623 458.596 118.496V112.96C458.596 108.832 461.942 105.486 466.07 105.486H480.823C484.951 105.486 488.297 102.14 488.297 98.013V34.4425C488.297 30.315 484.951 26.969 480.823 26.969H467.094C462.967 26.969 459.621 23.6231 459.621 19.4956V13.9597C459.621 9.8322 462.967 6.48622 467.094 6.48622H502.33C506.458 6.48622 509.804 9.83219 509.804 13.9597V98.013C509.804 102.14 513.15 105.486 517.277 105.486H529.982C534.109 105.486 537.455 108.832 537.455 112.96V118.496C537.455 122.623 534.109 125.969 529.982 125.969H466.07Z" fill="#FEFEFE"/>
<path d="M589.006 128.359C581.268 128.359 574.042 126.652 567.328 123.238C560.614 119.824 555.209 114.874 551.113 108.388C547.016 101.902 544.968 93.9933 544.968 84.6623V82.614C544.968 73.3967 547.016 65.545 551.113 59.0588C555.209 52.4587 560.614 47.4518 567.328 44.038C574.042 40.6242 581.268 38.9173 589.006 38.9173C596.744 38.9173 603.97 40.6242 610.683 44.038C617.397 47.4518 622.802 52.4587 626.899 59.0588C630.996 65.545 633.044 73.3967 633.044 82.614V84.6623C633.044 93.9933 630.996 101.902 626.899 108.388C622.802 114.874 617.397 119.824 610.683 123.238C603.97 126.652 596.744 128.359 589.006 128.359ZM589.006 107.876C595.264 107.876 600.556 105.885 604.88 101.902C609.318 97.8054 611.537 92.2864 611.537 85.345V81.9312C611.537 74.876 609.318 69.3571 604.88 65.3743C600.556 61.3915 595.264 59.4001 589.006 59.4001C582.747 59.4001 577.399 61.3915 572.961 65.3743C568.637 69.3571 566.475 74.876 566.475 81.9312V85.345C566.475 92.2864 568.637 97.8054 572.961 101.902C577.399 105.885 582.747 107.876 589.006 107.876Z" fill="#FEFEFE"/>
<path d="M669.966 125.969C666.631 125.969 663.699 123.759 662.781 120.553L642.823 50.8374C641.455 46.0624 645.04 41.307 650.007 41.307H657.576C660.957 41.307 663.917 43.5775 664.794 46.8435L682.88 114.244C683.115 115.119 683.909 115.728 684.815 115.728C685.721 115.728 686.514 115.119 686.749 114.244L704.836 46.8435C705.713 43.5775 708.673 41.307 712.054 41.307H719.622C724.589 41.307 728.174 46.0624 726.807 50.8374L706.848 120.553C705.93 123.759 702.999 125.969 699.664 125.969H669.966Z" fill="#FEFEFE"/>
</svg>
